<svg width="19" height="20" viewBox="0 0 19 20" fill="none" xmlns="http://www.w3.org/2000/svg">
    <path
        d="M6.84375 3.5H11.9062V2.09375C11.9531 1.57812 12.2344 1.29687 12.75 1.25C13.2656 1.29687 13.5469 1.57812 13.5938 2.09375V3.5H15C15.6328 3.52344 16.1602 3.74609 16.582 4.16797C17.0039 4.58984 17.2266 5.11719 17.25 5.75V17C17.2266 17.6328 17.0039 18.1602 16.582 18.582C16.1602 19.0039 15.6328 19.2266 15 19.25H3.75C3.11719 19.2266 2.58984 19.0039 2.16797 18.582C1.74609 18.1602 1.52344 17.6328 1.5 17V5.75C1.52344 5.11719 1.74609 4.58984 2.16797 4.16797C2.58984 3.74609 3.11719 3.52344 3.75 3.5H5.15625V2.09375C5.20312 1.57812 5.48438 1.29687 6 1.25C6.51562 1.29687 6.79688 1.57812 6.84375 2.09375V3.5ZM3.1875 17C3.21094 17.3516 3.39844 17.5391 3.75 17.5625H15C15.3516 17.5391 15.5391 17.3516 15.5625 17V8H3.1875V17Z"
        fill="black" />
</svg>