<!-- <svg class="icon icon-youtube" viewBox="0 0 20 20"><path fill="currentColor" d="M18.16 5.87c.34 1.309.34 4.08.34 4.08s0 2.771-.34 4.08a2.13 2.13 0 0 1-1.53 1.53c-1.309.34-6.63.34-6.63.34s-5.321 0-6.63-.34a2.13 2.13 0 0 1-1.53-1.53c-.34-1.309-.34-4.08-.34-4.08s0-2.771.34-4.08a2.17 2.17 0 0 1 1.53-1.53C4.679 4 10 4 10 4s5.321 0 6.63.34a2.17 2.17 0 0 1 1.53 1.53M8.3 12.5l4.42-2.55L8.3 7.4z"/></svg> -->
<svg class="icon icon-youtube" width="20" height="20" viewBox="0 0 24 16" fill="none" xmlns="http://www.w3.org/2000/svg">
<path d="M23.5055 2.50361C23.229 1.52462 22.4183 0.7529 21.3903 0.489281C19.5122 -3.4052e-08 11.9997 0 11.9997 0C11.9997 0 4.48756 0 2.60948 0.47075C1.60122 0.734083 0.770814 1.5248 0.494251 2.50361C0 4.2917 0 8.00004 0 8.00004C0 8.00004 0 11.727 0.494251 13.4964C0.771077 14.4752 1.58145 15.247 2.60963 15.5106C4.50732 16 12 16 12 16C12 16 19.5122 16 21.3903 15.5293C22.4184 15.2658 23.229 14.4941 23.5058 13.5152C23.9999 11.727 23.9999 8.01882 23.9999 8.01882C23.9999 8.01882 24.0197 4.29167 23.5055 2.50361ZM9.60789 11.4259V4.5741L15.8549 7.99997L9.60789 11.4259Z" fill="white"/>
</svg>
