<svg class="icon icon-linkedIn" width="18" height="18" viewBox="0 0 18 18" fill="none" xmlns="http://www.w3.org/2000/svg">
<path d="M2.18287 0C0.862959 0 0 0.906741 0 2.09855C0 3.26404 0.837281 4.19665 2.13224 4.19665H2.15727C3.503 4.19665 4.34048 3.26404 4.34048 2.09855C4.31533 0.906741 3.503 0 2.18287 0ZM0.228094 5.85489H4.0867V18H0.228066L0.228094 5.85489ZM13.5578 5.56983C11.4762 5.56983 10.0804 7.6162 10.0804 7.6162V5.85486H6.22167V18H10.0802V11.2177C10.0802 10.8546 10.1053 10.4921 10.2073 10.2324C10.4862 9.50742 11.121 8.75628 12.187 8.75628C13.5833 8.75628 14.1417 9.87005 14.1417 11.5027V18H18V11.0362C18 7.30577 16.0963 5.56983 13.5578 5.56983Z" fill="white"/>
</svg>
