<svg width="26" height="26" viewBox="0 0 26 26" fill="none" class="icon icon-cart cart-icon" xmlns="http://www.w3.org/2000/svg">
<path class="circle" d="M11.1038 24.3752C12.1509 24.3752 12.9997 23.5264 12.9997 22.4793C12.9997 21.4323 12.1509 20.5835 11.1038 20.5835C10.0568 20.5835 9.20801 21.4323 9.20801 22.4793C9.20801 23.5264 10.0568 24.3752 11.1038 24.3752Z" fill="white"/>
<path class="circle" d="M20.3128 24.3752C21.3599 24.3752 22.2087 23.5264 22.2087 22.4793C22.2087 21.4323 21.3599 20.5835 20.3128 20.5835C19.2658 20.5835 18.417 21.4323 18.417 22.4793C18.417 23.5264 19.2658 24.3752 20.3128 24.3752Z" fill="white"/>
<path d="M2.70898 2.6001L7.58398 5.8501L10.2923 17.7668H21.1257L23.834 8.55843H13.5423" stroke="white" stroke-width="1.8" stroke-linecap="round" stroke-linejoin="round"/>
<path d="M13.542 14.0835H17.4814H22.2087" stroke="white" stroke-width="1.8" stroke-linecap="round" stroke-linejoin="round"/>
</svg>
