<svg width="22" height="22" class="icon-add-to-cart" viewBox="0 0 23 22" fill="none" xmlns="http://www.w3.org/2000/svg">
<path d="M10.1462 20.6251C11.0321 20.6251 11.7503 19.9069 11.7503 19.0209C11.7503 18.135 11.0321 17.4167 10.1462 17.4167C9.2602 17.4167 8.54199 18.135 8.54199 19.0209C8.54199 19.9069 9.2602 20.6251 10.1462 20.6251Z" fill="#00B5E3"/>
<path d="M17.9372 20.6251C18.8231 20.6251 19.5413 19.9069 19.5413 19.0209C19.5413 18.135 18.8231 17.4167 17.9372 17.4167C17.0512 17.4167 16.333 18.135 16.333 19.0209C16.333 19.9069 17.0512 20.6251 17.9372 20.6251Z" fill="#00B5E3"/>
<path d="M3.04199 2.19995L7.16699 4.94995L9.45866 15.0333H18.6253L20.917 7.24162H12.2087" stroke="#00B5E3" stroke-width="1.2" stroke-linecap="round" stroke-linejoin="round"/>
<path d="M12.208 11.9167H15.5413H19.5413" stroke="#00B5E3" stroke-width="1.2" stroke-linecap="round" stroke-linejoin="round"/>
</svg>
