<!-- <svg class="icon icon-facebook" viewBox="0 0 20 20"><path fill="currentColor" d="M18 10.049C18 5.603 14.419 2 10 2s-8 3.603-8 8.049C2 14.067 4.925 17.396 8.75 18v-5.624H6.719v-2.328h2.03V8.275c0-2.017 1.195-3.132 3.023-3.132.874 0 1.79.158 1.79.158v1.98h-1.009c-.994 0-1.303.621-1.303 1.258v1.51h2.219l-.355 2.326H11.25V18c3.825-.604 6.75-3.933 6.75-7.951"/></svg> -->
<svg class="icon icon-facebook" width="10" height="20" viewBox="0 0 10 20" fill="none" xmlns="http://www.w3.org/2000/svg">
<path fill-rule="evenodd" clip-rule="evenodd" d="M9.77801 3.85445L8.04611 3.8556C6.68796 3.8556 6.42461 4.50075 6.42461 5.4472V7.5356H9.66416L9.24211 10.8073H6.42461V19.2H3.04706V10.8073H0.222656V7.5356H3.04706V5.12405C3.04706 2.3238 4.75711 0.800049 7.25376 0.800049C8.44976 0.800049 9.47786 0.888599 9.77801 0.928849V3.85445Z" fill="white"/>
</svg>
