<svg width="18" height="18" viewBox="0 0 18 18" fill="none" xmlns="http://www.w3.org/2000/svg">
<path d="M5.80805 2C6.11915 2 6.40575 2.1687 6.55676 2.44068L7.60418 4.32745C7.74132 4.57449 7.74778 4.8733 7.62139 5.12603L6.61233 7.1442C6.61233 7.1442 6.90476 8.6476 8.12858 9.87142C9.3524 11.0952 10.8508 11.3826 10.8508 11.3826L12.8686 10.3737C13.1215 10.2473 13.4205 10.2538 13.6677 10.3912L15.5598 11.4432C15.8315 11.5943 16 11.8807 16 12.1916V14.3638C16 15.47 14.9725 16.269 13.9243 15.9153C11.7717 15.1889 8.43008 13.8059 6.31211 11.6879C4.1941 9.56992 2.8111 6.22834 2.08473 4.07565C1.73107 3.0275 2.53003 2 3.63622 2H5.80805Z" stroke="white" stroke-width="1.5" stroke-linejoin="round"/>
</svg>
