<svg width="12" height="12" viewBox="0 0 11 11" fill="none" xmlns="http://www.w3.org/2000/svg">
<path d="M5.31441 0.46217C5.38159 0.294876 5.61841 0.294876 5.68559 0.46217L7.00496 3.74768C7.03357 3.81892 7.10043 3.8675 7.17703 3.87269L10.7094 4.11221C10.8893 4.1244 10.9625 4.34964 10.8241 4.46523L8.10715 6.7353C8.04823 6.78452 8.02269 6.86312 8.04142 6.93757L8.9052 10.3711C8.94919 10.5459 8.75759 10.6851 8.60491 10.5893L5.60634 8.70676C5.54132 8.66594 5.45868 8.66594 5.39366 8.70676L2.39509 10.5893C2.24241 10.6851 2.05081 10.5459 2.0948 10.3711L2.95858 6.93757C2.97731 6.86312 2.95177 6.78452 2.89285 6.7353L0.175859 4.46523C0.0375131 4.34964 0.110697 4.1244 0.290563 4.11221L3.82297 3.87269C3.89957 3.8675 3.96643 3.81892 3.99504 3.74768L5.31441 0.46217Z" fill="white"/>
</svg>
